<svg xmlns="http://www.w3.org/2000/svg" viewBox="0 0 2000 2000"><defs><style>.a74e4c81-c2e3-4671-9768-a3a83cf25599,.b98aa88a-aba9-4ff7-8f47-259ba8cd6139{fill:#fff;}.a1fb650a-b6b7-4a12-9a80-c1c615d9b881,.ac5bbe2a-d7cf-4608-9a34-24541027878e,.ad7c1640-da06-4635-bf26-6666bd36c2a0{fill:none;stroke-miterlimit:10;}.a1fb650a-b6b7-4a12-9a80-c1c615d9b881{stroke:#231f20;stroke-width:40px;}.ac5bbe2a-d7cf-4608-9a34-24541027878e,.ad7c1640-da06-4635-bf26-6666bd36c2a0{stroke:#000;}.ad7c1640-da06-4635-bf26-6666bd36c2a0{stroke-width:80px;}.ac5bbe2a-d7cf-4608-9a34-24541027878e{stroke-width:129px;}.a74e4c81-c2e3-4671-9768-a3a83cf25599{font-size:480px;font-family:OpenSans-SemiBold, Open Sans SemiBold;font-weight:600;}</style></defs><title>VERTO</title><g id="ec9030d4-2b0b-42bd-a968-69799e8c9c8a" data-name="Layer 2"><rect class="b98aa88a-aba9-4ff7-8f47-259ba8cd6139" x="52" y="52" width="1896" height="1896" rx="189.6"/><rect class="a1fb650a-b6b7-4a12-9a80-c1c615d9b881" x="52" y="52" width="1896" height="1896" rx="189.6"/><rect x="536.97" y="402.05" width="195.04" height="1257.9" rx="18.96"/><rect class="ad7c1640-da06-4635-bf26-6666bd36c2a0" x="536.97" y="402.05" width="195.04" height="1257.9" rx="18.96"/><path d="M1678.65,1075.23c28-23.78,28-62.68,0-86.46L1049.79,454.18c-28-23.78-50.86-13.2-50.86,23.51V1586.31c0,36.71,22.89,47.29,50.86,23.51Z"/><path class="ac5bbe2a-d7cf-4608-9a34-24541027878e" d="M1678.65,1075.23c28-23.78,28-62.68,0-86.46L1049.79,454.18c-28-23.78-50.86-13.2-50.86,23.51V1586.31c0,36.71,22.89,47.29,50.86,23.51Z"/><text class="a74e4c81-c2e3-4671-9768-a3a83cf25599" transform="translate(1088.5 1178.35) scale(1.01 1)">C</text></g></svg>