<svg xmlns="http://www.w3.org/2000/svg" viewBox="0 0 2000 2000"><defs><style>.a9d8d1cd-bb9a-49a8-b271-3dc8182105b9,.b0cb92e4-8bd9-45e8-89a9-0fe037497102{fill:#fff;}.a8c52179-cb3b-4f6b-86f1-770bcd26cb48,.e6450846-813d-4b0b-a380-7336ab678711,.fedf9f31-5449-4c48-a654-45756ead3bea{fill:none;stroke-miterlimit:10;}.fedf9f31-5449-4c48-a654-45756ead3bea{stroke:#231f20;stroke-width:40px;}.a8c52179-cb3b-4f6b-86f1-770bcd26cb48,.e6450846-813d-4b0b-a380-7336ab678711{stroke:#000;}.e6450846-813d-4b0b-a380-7336ab678711{stroke-width:80px;}.a8c52179-cb3b-4f6b-86f1-770bcd26cb48{stroke-width:129px;}.b0cb92e4-8bd9-45e8-89a9-0fe037497102{font-size:480px;font-family:OpenSans-SemiBold, Open Sans SemiBold;font-weight:600;}</style></defs><title>VERTO</title><g id="ebc371be-94c8-48f2-ac7b-f98d77d8c777" data-name="Layer 2"><rect class="a9d8d1cd-bb9a-49a8-b271-3dc8182105b9" x="52" y="52" width="1896" height="1896" rx="189.6"/><rect class="fedf9f31-5449-4c48-a654-45756ead3bea" x="52" y="52" width="1896" height="1896" rx="189.6"/><rect x="1333.97" y="402.05" width="195.04" height="1257.9" rx="18.96"/><rect class="e6450846-813d-4b0b-a380-7336ab678711" x="1333.97" y="402.05" width="195.04" height="1257.9" rx="18.96"/><path d="M387.33,986.77c-28,23.78-28,62.68,0,86.46l628.86,534.59c28,23.78,50.85,13.2,50.85-23.51V475.69c0-36.71-22.88-47.29-50.85-23.51Z"/><path class="a8c52179-cb3b-4f6b-86f1-770bcd26cb48" d="M387.33,986.77c-28,23.78-28,62.68,0,86.46l628.86,534.59c28,23.78,50.85,13.2,50.85-23.51V475.69c0-36.71-22.88-47.29-50.85-23.51Z"/><text class="b0cb92e4-8bd9-45e8-89a9-0fe037497102" transform="translate(659 1178.35) scale(1.01 1)">A</text></g></svg>