<svg xmlns="http://www.w3.org/2000/svg" viewBox="0 0 2000 2000"><defs><style>.b42f206c-9a94-4fd1-864b-a85ae68ebdd7,.e21c11d8-f011-48d7-9e6d-7c7f29588ef8{fill:none;stroke-miterlimit:10;}.e21c11d8-f011-48d7-9e6d-7c7f29588ef8{stroke:#000;stroke-width:40px;}.b36f2059-7f23-4e31-8480-41cd20c27d10{fill:#fff;}.b42f206c-9a94-4fd1-864b-a85ae68ebdd7{stroke:#fff;stroke-width:80px;}.e76f7b2f-4c6f-4591-ae5e-77bbdd1cd3a1{font-size:480px;font-family:OpenSans-SemiBold, Open Sans SemiBold;font-weight:600;}</style></defs><title>VERTO</title><g id="e925acbf-6d3a-4307-8e04-6aee74bcf158" data-name="Layer 2"><rect x="52" y="52" width="1896" height="1896" rx="189.6"/><rect class="e21c11d8-f011-48d7-9e6d-7c7f29588ef8" x="52" y="52" width="1896" height="1896" rx="189.6"/><path class="b36f2059-7f23-4e31-8480-41cd20c27d10" d="M1342.23,1036.84c23.84-20.26,23.84-53.42,0-73.68L806.34,507.6c-23.84-20.27-43.34-11.25-43.34,20v944.72c0,31.29,19.5,40.31,43.34,20Z"/><path class="b42f206c-9a94-4fd1-864b-a85ae68ebdd7" d="M1342.23,1036.84c23.84-20.26,23.84-53.42,0-73.68L806.34,507.6c-23.84-20.27-43.34-11.25-43.34,20v944.72c0,31.29,19.5,40.31,43.34,20Z"/><rect class="b36f2059-7f23-4e31-8480-41cd20c27d10" x="254.04" y="476.36" width="162.38" height="1047.28" rx="18.96"/><rect class="b42f206c-9a94-4fd1-864b-a85ae68ebdd7" x="254.04" y="476.36" width="162.38" height="1047.28" rx="18.96"/><rect class="b36f2059-7f23-4e31-8480-41cd20c27d10" x="1548.62" y="476.36" width="162.38" height="1047.28" rx="18.96"/><rect class="b42f206c-9a94-4fd1-864b-a85ae68ebdd7" x="1548.62" y="476.36" width="162.38" height="1047.28" rx="18.96"/><text class="e76f7b2f-4c6f-4591-ae5e-77bbdd1cd3a1" transform="translate(781 1190.35) scale(1.01 1)">C</text></g></svg>