<svg xmlns="http://www.w3.org/2000/svg" viewBox="0 0 2000 2000"><defs><style>.b7f92ff4-49e2-44dd-9970-37ba9c378ad6,.e8e60ee2-f12a-4c20-80a2-203cb37bfb02{fill:#fff;}.a071afe6-1b87-4253-8080-0e321ea68bd0,.ae27ece9-c4e9-4a80-b429-6438b6ae4fcb,.be613ab9-aa80-42d0-a135-dd7e31471c3d{fill:none;stroke-miterlimit:10;}.be613ab9-aa80-42d0-a135-dd7e31471c3d{stroke:#231f20;stroke-width:40px;}.a071afe6-1b87-4253-8080-0e321ea68bd0,.ae27ece9-c4e9-4a80-b429-6438b6ae4fcb{stroke:#000;}.ae27ece9-c4e9-4a80-b429-6438b6ae4fcb{stroke-width:80px;}.a071afe6-1b87-4253-8080-0e321ea68bd0{stroke-width:93.88px;}.e8e60ee2-f12a-4c20-80a2-203cb37bfb02{font-size:480px;font-family:OpenSans-SemiBold, Open Sans SemiBold;font-weight:600;}</style></defs><title>VERTO</title><g id="b101d1e1-8093-4c14-8c6e-5afe9202b91e" data-name="Layer 2"><rect class="b7f92ff4-49e2-44dd-9970-37ba9c378ad6" x="52" y="52" width="1896" height="1896" rx="189.6"/><rect class="be613ab9-aa80-42d0-a135-dd7e31471c3d" x="52" y="52" width="1896" height="1896" rx="189.6"/><rect x="1323.99" y="372.05" width="195.04" height="1257.9" rx="18.96"/><rect class="ae27ece9-c4e9-4a80-b429-6438b6ae4fcb" x="1323.99" y="372.05" width="195.04" height="1257.9" rx="18.96"/><path d="M1091.21,1043.23c28-23.78,28-62.68,0-86.46L462.36,422.18c-28-23.78-50.86-13.2-50.86,23.51V1554.31c0,36.71,22.89,47.29,50.86,23.51Z"/><path class="a071afe6-1b87-4253-8080-0e321ea68bd0" d="M1091.21,1043.23c28-23.78,28-62.68,0-86.46L462.36,422.18c-28-23.78-50.86-13.2-50.86,23.51V1554.31c0,36.71,22.89,47.29,50.86,23.51Z"/><text class="e8e60ee2-f12a-4c20-80a2-203cb37bfb02" transform="translate(522 1137.93) scale(1.01 1)">A</text></g></svg>