<svg xmlns="http://www.w3.org/2000/svg" viewBox="0 0 2000 2000"><defs><style>.a7bc3507-6b1e-4751-88cf-300f22b3d0b0,.b4740027-9368-4946-aa89-f3de60d39f32{fill:#fff;}.bbf3b8b1-5fd5-43e2-ab4d-c59bdb9c1b05,.bfcfd4f0-5a11-4f6e-a09a-5a5f6f908de1{fill:none;stroke-miterlimit:10;}.bfcfd4f0-5a11-4f6e-a09a-5a5f6f908de1{stroke:#231f20;stroke-width:40px;}.bbf3b8b1-5fd5-43e2-ab4d-c59bdb9c1b05{stroke:#000;stroke-width:80px;}.a7bc3507-6b1e-4751-88cf-300f22b3d0b0{font-size:480px;font-family:OpenSans-SemiBold, Open Sans SemiBold;font-weight:600;}</style></defs><title>VERTO</title><g id="f1128e03-ce16-483f-a3d9-dd47729a268b" data-name="Layer 2"><rect class="b4740027-9368-4946-aa89-f3de60d39f32" x="52" y="52" width="1896" height="1896" rx="189.6"/><rect class="bfcfd4f0-5a11-4f6e-a09a-5a5f6f908de1" x="52" y="52" width="1896" height="1896" rx="189.6"/><path d="M1322.23,1036.84c23.84-20.26,23.84-53.42,0-73.68L786.34,507.6c-23.84-20.27-43.34-11.25-43.34,20v944.72c0,31.29,19.5,40.31,43.34,20Z"/><path class="bbf3b8b1-5fd5-43e2-ab4d-c59bdb9c1b05" d="M1322.23,1036.84c23.84-20.26,23.84-53.42,0-73.68L786.34,507.6c-23.84-20.27-43.34-11.25-43.34,20v944.72c0,31.29,19.5,40.31,43.34,20Z"/><rect x="254.04" y="476.36" width="162.38" height="1047.28" rx="18.96"/><rect class="bbf3b8b1-5fd5-43e2-ab4d-c59bdb9c1b05" x="254.04" y="476.36" width="162.38" height="1047.28" rx="18.96"/><rect x="1548.62" y="476.36" width="162.38" height="1047.28" rx="18.96"/><rect class="bbf3b8b1-5fd5-43e2-ab4d-c59bdb9c1b05" x="1548.62" y="476.36" width="162.38" height="1047.28" rx="18.96"/><text class="a7bc3507-6b1e-4751-88cf-300f22b3d0b0" transform="translate(781 1190.35) scale(1.01 1)">C</text></g></svg>