<svg xmlns="http://www.w3.org/2000/svg" viewBox="0 0 2000 2000"><defs><style>.a0482525-7c06-4447-ac77-08209ffe8949,.fcd93442-71b6-4640-8c2a-08e690a46fbe{fill:none;stroke-miterlimit:10;}.fcd93442-71b6-4640-8c2a-08e690a46fbe{stroke:#000;stroke-width:40px;}.e66f6028-710b-41eb-8f56-642f973dd92c{fill:#fff;}.a0482525-7c06-4447-ac77-08209ffe8949{stroke:#fff;stroke-width:80px;}</style></defs><title>VERTO</title><g id="afd33428-be0a-4855-9580-ebaaef26f786" data-name="Layer 2"><rect x="52" y="52" width="1896" height="1896" rx="189.6"/><rect class="fcd93442-71b6-4640-8c2a-08e690a46fbe" x="52" y="52" width="1896" height="1896" rx="189.6"/><path class="e66f6028-710b-41eb-8f56-642f973dd92c" d="M1342.23,1036.84c23.84-20.26,23.84-53.42,0-73.68L806.34,507.6c-23.84-20.27-43.34-11.25-43.34,20v944.72c0,31.29,19.5,40.31,43.34,20Z"/><path class="a0482525-7c06-4447-ac77-08209ffe8949" d="M1342.23,1036.84c23.84-20.26,23.84-53.42,0-73.68L806.34,507.6c-23.84-20.27-43.34-11.25-43.34,20v944.72c0,31.29,19.5,40.31,43.34,20Z"/><rect class="e66f6028-710b-41eb-8f56-642f973dd92c" x="254.04" y="476.36" width="162.38" height="1047.28" rx="18.96"/><rect class="a0482525-7c06-4447-ac77-08209ffe8949" x="254.04" y="476.36" width="162.38" height="1047.28" rx="18.96"/><rect class="e66f6028-710b-41eb-8f56-642f973dd92c" x="1548.62" y="476.36" width="162.38" height="1047.28" rx="18.96"/><rect class="a0482525-7c06-4447-ac77-08209ffe8949" x="1548.62" y="476.36" width="162.38" height="1047.28" rx="18.96"/></g></svg>