<svg xmlns="http://www.w3.org/2000/svg" viewBox="0 0 2000 2000"><defs><style>.f18a5711-2e8b-49aa-8909-dbe21c96fcf1,.f220cd0b-db63-479f-9b5b-ad1101cbf17a{fill:#fff;}.adae8321-68eb-414e-8bf6-e5677a86bd9e,.af550190-ede1-441c-ae92-76adc88ce1a1,.ba2c0d2f-c997-4ab5-89f1-40882c830e56{fill:none;stroke-miterlimit:10;}.ba2c0d2f-c997-4ab5-89f1-40882c830e56{stroke:#231f20;stroke-width:40px;}.adae8321-68eb-414e-8bf6-e5677a86bd9e,.af550190-ede1-441c-ae92-76adc88ce1a1{stroke:#000;}.af550190-ede1-441c-ae92-76adc88ce1a1{stroke-width:80px;}.adae8321-68eb-414e-8bf6-e5677a86bd9e{stroke-width:129px;}.f18a5711-2e8b-49aa-8909-dbe21c96fcf1{font-size:480px;font-family:OpenSans-SemiBold, Open Sans SemiBold;font-weight:600;}</style></defs><title>VERTO</title><g id="ef0c9b62-345a-428c-b52c-0e02794e95c5" data-name="Layer 2"><rect class="f220cd0b-db63-479f-9b5b-ad1101cbf17a" x="52" y="52" width="1896" height="1896" rx="189.6"/><rect class="ba2c0d2f-c997-4ab5-89f1-40882c830e56" x="52" y="52" width="1896" height="1896" rx="189.6"/><rect x="527.47" y="402.05" width="195.04" height="1257.9" rx="18.96"/><rect class="af550190-ede1-441c-ae92-76adc88ce1a1" x="527.47" y="402.05" width="195.04" height="1257.9" rx="18.96"/><path d="M1669.15,1075.23c28-23.78,28-62.68,0-86.46L1040.29,454.18c-28-23.78-50.86-13.2-50.86,23.51V1586.31c0,36.71,22.89,47.29,50.86,23.51Z"/><path class="adae8321-68eb-414e-8bf6-e5677a86bd9e" d="M1669.15,1075.23c28-23.78,28-62.68,0-86.46L1040.29,454.18c-28-23.78-50.86-13.2-50.86,23.51V1586.31c0,36.71,22.89,47.29,50.86,23.51Z"/><text class="f18a5711-2e8b-49aa-8909-dbe21c96fcf1" transform="translate(1104 1168.35) scale(1.01 1)">A</text></g></svg>