<svg xmlns="http://www.w3.org/2000/svg" viewBox="0 0 2000 2000"><defs><style>.a5acb86f-ebdb-494e-aa51-36053bdb4b40,.b1d45791-c98c-4f9d-b018-dd1a6c3bb851{fill:#fff;}.a2d5d5dd-25f3-4ead-9349-70825ddf800d,.bc57b1c1-df38-460a-bf4f-b2111dc4a195,.ecd0cf05-3801-4ea0-b5a0-830731b3a956{fill:none;stroke-miterlimit:10;}.ecd0cf05-3801-4ea0-b5a0-830731b3a956{stroke:#231f20;stroke-width:40px;}.a2d5d5dd-25f3-4ead-9349-70825ddf800d,.bc57b1c1-df38-460a-bf4f-b2111dc4a195{stroke:#000;}.a2d5d5dd-25f3-4ead-9349-70825ddf800d{stroke-width:80px;}.bc57b1c1-df38-460a-bf4f-b2111dc4a195{stroke-width:129px;}.a5acb86f-ebdb-494e-aa51-36053bdb4b40{font-size:480px;font-family:OpenSans-SemiBold, Open Sans SemiBold;font-weight:600;}</style></defs><title>VERTO</title><g id="e05a8a42-e6a1-4573-87d8-1412c8847777" data-name="Layer 2"><rect class="b1d45791-c98c-4f9d-b018-dd1a6c3bb851" x="52" y="52" width="1896" height="1896" rx="189.6"/><rect class="ecd0cf05-3801-4ea0-b5a0-830731b3a956" x="52" y="52" width="1896" height="1896" rx="189.6"/><rect x="1280.47" y="402.05" width="195.04" height="1257.9" rx="18.96"/><rect class="a2d5d5dd-25f3-4ead-9349-70825ddf800d" x="1280.47" y="402.05" width="195.04" height="1257.9" rx="18.96"/><path d="M333.83,986.77c-28,23.78-28,62.68,0,86.46l628.86,534.59c28,23.78,50.85,13.2,50.85-23.51V475.69c0-36.71-22.88-47.29-50.85-23.51Z"/><path class="bc57b1c1-df38-460a-bf4f-b2111dc4a195" d="M333.83,986.77c-28,23.78-28,62.68,0,86.46l628.86,534.59c28,23.78,50.85,13.2,50.85-23.51V475.69c0-36.71-22.88-47.29-50.85-23.51Z"/><text class="a5acb86f-ebdb-494e-aa51-36053bdb4b40" transform="translate(544.5 1179.35) scale(1.01 1)">C</text></g></svg>