<svg xmlns="http://www.w3.org/2000/svg" viewBox="0 0 2000 2000"><defs><style>.b0ab7708-516e-46f2-b750-dfd414f31224{fill:#fff;}.aaa81a56-a3ae-4ab2-aa4f-2303b2870c66,.ad28f883-cd73-4be8-9f9e-d988af6477bf,.faa27d4a-6f29-4fa2-a2b8-80546afe87fd{fill:none;stroke-miterlimit:10;}.ad28f883-cd73-4be8-9f9e-d988af6477bf{stroke:#231f20;stroke-width:40px;}.aaa81a56-a3ae-4ab2-aa4f-2303b2870c66,.faa27d4a-6f29-4fa2-a2b8-80546afe87fd{stroke:#000;}.aaa81a56-a3ae-4ab2-aa4f-2303b2870c66{stroke-width:80px;}.faa27d4a-6f29-4fa2-a2b8-80546afe87fd{stroke-width:93.88px;}</style></defs><title>VERTO</title><g id="a7cfd0a8-4722-4b0d-a481-77f36c6d1fe2" data-name="Layer 2"><rect class="b0ab7708-516e-46f2-b750-dfd414f31224" x="52" y="52" width="1896" height="1896" rx="189.6"/><rect class="ad28f883-cd73-4be8-9f9e-d988af6477bf" x="52" y="52" width="1896" height="1896" rx="189.6"/><rect x="1323.99" y="372.05" width="195.04" height="1257.9" rx="18.96"/><rect class="aaa81a56-a3ae-4ab2-aa4f-2303b2870c66" x="1323.99" y="372.05" width="195.04" height="1257.9" rx="18.96"/><path d="M1091.21,1043.23c28-23.78,28-62.68,0-86.46L462.36,422.18c-28-23.78-50.86-13.2-50.86,23.51V1554.31c0,36.71,22.89,47.29,50.86,23.51Z"/><path class="faa27d4a-6f29-4fa2-a2b8-80546afe87fd" d="M1091.21,1043.23c28-23.78,28-62.68,0-86.46L462.36,422.18c-28-23.78-50.86-13.2-50.86,23.51V1554.31c0,36.71,22.89,47.29,50.86,23.51Z"/></g></svg>