<svg xmlns="http://www.w3.org/2000/svg" viewBox="0 0 2000 2000"><defs><style>.bdd7b0ae-191e-48c0-b5e3-25f32bbc713f{fill:#fff;}.a8c71dab-acd1-42d6-9dd7-01846a4f9a4e,.a9c0eea4-3ab7-43ea-b612-9590c3a80e43,.e747a4a7-38c4-4578-8ef7-a3f7f65840b3{fill:none;stroke-miterlimit:10;}.e747a4a7-38c4-4578-8ef7-a3f7f65840b3{stroke:#231f20;stroke-width:40px;}.a8c71dab-acd1-42d6-9dd7-01846a4f9a4e,.a9c0eea4-3ab7-43ea-b612-9590c3a80e43{stroke:#000;}.a8c71dab-acd1-42d6-9dd7-01846a4f9a4e{stroke-width:80px;}.a9c0eea4-3ab7-43ea-b612-9590c3a80e43{stroke-width:93.88px;}</style></defs><title>VERTO</title><g id="e4b2f701-a011-40fb-b656-d3146c714e28" data-name="Layer 2"><rect class="bdd7b0ae-191e-48c0-b5e3-25f32bbc713f" x="52" y="52" width="1896" height="1896" rx="189.6"/><rect class="e747a4a7-38c4-4578-8ef7-a3f7f65840b3" x="52" y="52" width="1896" height="1896" rx="189.6"/><rect x="600.97" y="370.05" width="195.04" height="1257.9" rx="18.96"/><rect class="a8c71dab-acd1-42d6-9dd7-01846a4f9a4e" x="600.97" y="370.05" width="195.04" height="1257.9" rx="18.96"/><path d="M1028.79,956.77c-28,23.78-28,62.68,0,86.46l628.85,534.59c28,23.78,50.86,13.2,50.86-23.51V445.69c0-36.71-22.89-47.29-50.86-23.51Z"/><path class="a9c0eea4-3ab7-43ea-b612-9590c3a80e43" d="M1028.79,956.77c-28,23.78-28,62.68,0,86.46l628.85,534.59c28,23.78,50.86,13.2,50.86-23.51V445.69c0-36.71-22.89-47.29-50.86-23.51Z"/></g></svg>