<svg xmlns="http://www.w3.org/2000/svg" viewBox="0 0 2000 2000"><defs><style>.add3e85e-0297-462b-b5c5-901e5bcef116{fill:#fff;}.fa2fd5b0-6b2d-4178-b72d-c232e57e0252,.fd9e0434-8351-45b2-8689-dd71e7199647{fill:none;stroke-miterlimit:10;}.fd9e0434-8351-45b2-8689-dd71e7199647{stroke:#231f20;stroke-width:40px;}.fa2fd5b0-6b2d-4178-b72d-c232e57e0252{stroke:#000;stroke-width:80px;}</style></defs><title>VERTO</title><g id="af64f38b-81d7-4442-8700-7ebf69ab3326" data-name="Layer 2"><rect class="add3e85e-0297-462b-b5c5-901e5bcef116" x="52" y="52" width="1896" height="1896" rx="189.6"/><rect class="fd9e0434-8351-45b2-8689-dd71e7199647" x="52" y="52" width="1896" height="1896" rx="189.6"/><path d="M1312.23,1036.84c23.84-20.26,23.84-53.42,0-73.68L776.34,507.6c-23.84-20.27-43.34-11.25-43.34,20v944.72c0,31.29,19.5,40.31,43.34,20Z"/><path class="fa2fd5b0-6b2d-4178-b72d-c232e57e0252" d="M1312.23,1036.84c23.84-20.26,23.84-53.42,0-73.68L776.34,507.6c-23.84-20.27-43.34-11.25-43.34,20v944.72c0,31.29,19.5,40.31,43.34,20Z"/><rect x="254.04" y="476.36" width="162.38" height="1047.28" rx="18.96"/><rect class="fa2fd5b0-6b2d-4178-b72d-c232e57e0252" x="254.04" y="476.36" width="162.38" height="1047.28" rx="18.96"/><rect x="1548.62" y="476.36" width="162.38" height="1047.28" rx="18.96"/><rect class="fa2fd5b0-6b2d-4178-b72d-c232e57e0252" x="1548.62" y="476.36" width="162.38" height="1047.28" rx="18.96"/></g></svg>