<svg xmlns="http://www.w3.org/2000/svg" viewBox="0 0 2000 2000"><defs><style>.bcfbf0ff-53e2-42d0-b9d1-187d61675f65,.f17e4939-b3cd-4fe0-bf42-1349e97302fb{fill:#fff;}.b32acbf8-6587-4656-9031-21c68a483e0a,.e280ac34-0135-4eeb-bf96-7579d9bdabcb{fill:none;stroke-miterlimit:10;}.b32acbf8-6587-4656-9031-21c68a483e0a{stroke:#231f20;stroke-width:40px;}.e280ac34-0135-4eeb-bf96-7579d9bdabcb{stroke:#000;stroke-width:80px;}.bcfbf0ff-53e2-42d0-b9d1-187d61675f65{font-size:480px;font-family:OpenSans-SemiBold, Open Sans SemiBold;font-weight:600;}</style></defs><title>VERTO</title><g id="b0e43844-4ba6-485d-8479-9bebea3ffb31" data-name="Layer 2"><rect class="f17e4939-b3cd-4fe0-bf42-1349e97302fb" x="52" y="52" width="1896" height="1896" rx="189.6"/><rect class="b32acbf8-6587-4656-9031-21c68a483e0a" x="52" y="52" width="1896" height="1896" rx="189.6"/><path d="M1322.23,1036.84c23.84-20.26,23.84-53.42,0-73.68L786.34,507.6c-23.84-20.27-43.34-11.25-43.34,20v944.72c0,31.29,19.5,40.31,43.34,20Z"/><path class="e280ac34-0135-4eeb-bf96-7579d9bdabcb" d="M1322.23,1036.84c23.84-20.26,23.84-53.42,0-73.68L786.34,507.6c-23.84-20.27-43.34-11.25-43.34,20v944.72c0,31.29,19.5,40.31,43.34,20Z"/><rect x="254.04" y="476.36" width="162.38" height="1047.28" rx="18.96"/><rect class="e280ac34-0135-4eeb-bf96-7579d9bdabcb" x="254.04" y="476.36" width="162.38" height="1047.28" rx="18.96"/><rect x="1548.62" y="476.36" width="162.38" height="1047.28" rx="18.96"/><rect class="e280ac34-0135-4eeb-bf96-7579d9bdabcb" x="1548.62" y="476.36" width="162.38" height="1047.28" rx="18.96"/><text class="bcfbf0ff-53e2-42d0-b9d1-187d61675f65" transform="translate(811.5 1179.35) scale(1.01 1)">A</text></g></svg>