<svg xmlns="http://www.w3.org/2000/svg" viewBox="0 0 2000 2000"><defs><style>.bd4faf86-436e-415c-bb60-d505657102a5{fill:#fff;}.a95db924-e242-4e03-a9f3-86f6650475bf,.bdf4603b-a1eb-4db6-825b-d2c7e5d8681c,.e640ee2e-bd08-4fb1-973f-f98fea3fc5fb{fill:none;stroke-miterlimit:10;}.bdf4603b-a1eb-4db6-825b-d2c7e5d8681c{stroke:#231f20;stroke-width:40px;}.a95db924-e242-4e03-a9f3-86f6650475bf,.e640ee2e-bd08-4fb1-973f-f98fea3fc5fb{stroke:#000;}.e640ee2e-bd08-4fb1-973f-f98fea3fc5fb{stroke-width:80px;}.a95db924-e242-4e03-a9f3-86f6650475bf{stroke-width:129px;}</style></defs><title>VERTO</title><g id="a016d740-d0f0-4c34-8ecd-4c896f9aeb9f" data-name="Layer 2"><rect class="bd4faf86-436e-415c-bb60-d505657102a5" x="52" y="52" width="1896" height="1896" rx="189.6"/><rect class="bdf4603b-a1eb-4db6-825b-d2c7e5d8681c" x="52" y="52" width="1896" height="1896" rx="189.6"/><rect x="529.47" y="370.05" width="195.04" height="1257.9" rx="18.96"/><rect class="e640ee2e-bd08-4fb1-973f-f98fea3fc5fb" x="529.47" y="370.05" width="195.04" height="1257.9" rx="18.96"/><path d="M1671.15,1043.23c28-23.78,28-62.68,0-86.46L1042.29,422.18c-28-23.78-50.86-13.2-50.86,23.51V1554.31c0,36.71,22.89,47.29,50.86,23.51Z"/><path class="a95db924-e242-4e03-a9f3-86f6650475bf" d="M1671.15,1043.23c28-23.78,28-62.68,0-86.46L1042.29,422.18c-28-23.78-50.86-13.2-50.86,23.51V1554.31c0,36.71,22.89,47.29,50.86,23.51Z"/></g></svg>