<svg xmlns="http://www.w3.org/2000/svg" viewBox="0 0 2000 2000"><defs><style>.a3b61175-1763-4080-9204-f49546dd0a6d,.f00485db-189d-4b3b-8871-78e0034c0efe{fill:#fff;}.a82dbef9-7d03-4316-a721-2ba4ec5590a2,.abbab66b-e053-48bb-b3d9-cc79ae902b3c,.abc1a53c-2332-4d61-9f3c-d7399c577a86{fill:none;stroke-miterlimit:10;}.a82dbef9-7d03-4316-a721-2ba4ec5590a2{stroke:#231f20;stroke-width:40px;}.abbab66b-e053-48bb-b3d9-cc79ae902b3c,.abc1a53c-2332-4d61-9f3c-d7399c577a86{stroke:#000;}.abc1a53c-2332-4d61-9f3c-d7399c577a86{stroke-width:80px;}.abbab66b-e053-48bb-b3d9-cc79ae902b3c{stroke-width:93.88px;}.a3b61175-1763-4080-9204-f49546dd0a6d{font-size:480px;font-family:OpenSans-SemiBold, Open Sans SemiBold;font-weight:600;}</style></defs><title>VERTO</title><g id="e0b58d51-b315-4db2-b793-794128d5b8dd" data-name="Layer 2"><rect class="f00485db-189d-4b3b-8871-78e0034c0efe" x="52" y="52" width="1896" height="1896" rx="189.6"/><rect class="a82dbef9-7d03-4316-a721-2ba4ec5590a2" x="52" y="52" width="1896" height="1896" rx="189.6"/><rect x="1323.99" y="372.05" width="195.04" height="1257.9" rx="18.96"/><rect class="abc1a53c-2332-4d61-9f3c-d7399c577a86" x="1323.99" y="372.05" width="195.04" height="1257.9" rx="18.96"/><path d="M1091.21,1043.23c28-23.78,28-62.68,0-86.46L462.36,422.18c-28-23.78-50.86-13.2-50.86,23.51V1554.31c0,36.71,22.89,47.29,50.86,23.51Z"/><path class="abbab66b-e053-48bb-b3d9-cc79ae902b3c" d="M1091.21,1043.23c28-23.78,28-62.68,0-86.46L462.36,422.18c-28-23.78-50.86-13.2-50.86,23.51V1554.31c0,36.71,22.89,47.29,50.86,23.51Z"/><text class="a3b61175-1763-4080-9204-f49546dd0a6d" transform="translate(520 1137.93) scale(1.01 1)">C</text></g></svg>